<?xml version="1.0" encoding="UTF-8"?>
<svg id="Layer_1" xmlns="http://www.w3.org/2000/svg" viewBox="0 0 346.98 346.98">
  <defs>
    <style>
      .cls-1 {
        fill: #656c71;
      }

      .cls-2 {
        fill: #3f3e3e;
      }

      .cls-3 {
        fill: #306792;
      }

      .cls-4 {
        fill: #fff;
      }

      .cls-5 {
        fill: #e7b142;
      }
    </style>
  </defs>
  <rect class="cls-2" x="-5.67" y="-5.67" width="358.32" height="358.32"/>
  <g>
    <path class="cls-4" d="M288.51,220.56h-52.76c27.51-19.52,45.46-51.62,45.46-87.91,0-59.49-48.23-107.72-107.72-107.72s-107.72,48.23-107.72,107.72c0,36.29,17.95,68.39,45.46,87.91h-52.76c-6.27,0-11.36,5.09-11.36,11.36v78.77c0,6.27,5.09,11.36,11.36,11.36h230.04c6.27,0,11.36-5.09,11.36-11.36v-78.77c0-6.27-5.09-11.36-11.36-11.36Z"/>
    <g>
      <g>
        <g>
          <path class="cls-3" d="M163.17,60.62c-.07.14-.14.27-.19.42l-.02.04-.02.05c-.14.39-.27.79-.4,1.18-.18.53-.35,1.03-.52,1.5-.49,1.25-1.06,2.49-1.66,3.8-.14.32-.29.63-.43.96-.18.03-.35.07-.52.12-3-7.52-7.53-13.95-11.35-18.52-.39-.45-.77-.91-1.16-1.36.87-.29,1.75-.55,2.63-.8,2.2,2.11,4.47,4.17,6.68,6.17,2.33,2.1,4.72,4.28,6.97,6.46Z"/>
          <path class="cls-3" d="M261.32,132.48c0,47.4-37.75,86.14-84.75,87.76-.38-5.13-.59-14.79,2.06-22.6,8.94-.7,17.38-3.21,24.96-7.15-2.05,6.35-4.53,9.96-4.56,10l-11.61,16.64,16.35-12.01c.35-.26,8.83-6.56,15.53-17.85,2.49-4.19,4.93-9.44,6.46-15.59,5.46-7.25,9.43-15.66,11.49-24.8l5.05.89,4.3,8.67,1.47-10.86c.08-.63,1.97-14.81.42-24.87.99-1.24,1.55-2.8,1.55-4.42,0-2.21-1-4.23-2.64-5.56v-20.28l3.28.17c6.78,12.45,10.64,26.72,10.64,41.86Z"/>
          <path class="cls-3" d="M160.27,219.31c-42.18-6.39-74.61-42.89-74.61-86.83,0-28.22,13.38-53.37,34.13-69.45-2.55,15.73.12,23.96,3.04,28.2-.2.24-.39.49-.59.73-.79.99-1.54,2-2.27,3.04-4.79,6.81-8.31,14.58-10.21,22.95-.13.54-.25,1.08-.35,1.63-.85,4.17-1.29,8.49-1.29,12.9,0,.78.02,1.56.05,2.33l-3.48,7.3-2.8,5.87,6.41-1.12s.52-.08,1.38-.24c1.73,7.89,4.91,15.24,9.23,21.77,4.29,23.12,22.52,36.57,22.78,36.76l14.31,10.3c1.47,1.43,2.91,2.71,4.28,3.87Z"/>
          <path class="cls-3" d="M238.42,89.96v20.77c-1.04.84-1.82,1.96-2.26,3.22-1.37-4.66-3.26-9.11-5.6-13.27.51-1.22.96-2.45,1.4-3.65.46-1.26.9-2.45,1.38-3.59.18-.41.34-.82.51-1.24.22-.53.42-1.03.62-1.51.08-.17.2-.49.35-.86,1.19.04,2.4.08,3.6.14Z"/>
        </g>
        <path class="cls-1" d="M220.84,140.27c13.18,38.2-18.66,61.84-19.07,62.15.22-.31,12.9-18.58,5.66-46.94,0,0,2.23,1.79,4.02,4.92,0,0,3.28-22.8-7.45-35.17,4.62.3,13.71,8.8,18.33,9.69-2.68-1.64-6.7-6.85-8.79-11.17-2.09-4.32-5.36-7.3-5.36-7.3,0,0,1.64-1.49,7.15.6-3.96-8.31-9.37-13.31-12.76-16.11,7.34.91,14.84,1.49,21.06,4.68h.03c3.2,3.86,5.39,7.61,5.52,7.85l-7.14-2.68,15.65,32.79s-9.39-1.64-16.84-3.28Z"/>
        <path class="cls-1" d="M191.78,149.36s-1.19,5.96-4.02,11.92c-2.84,5.97-10.43,2.99-12,2.09-1.57-.89-3.06-.89-3.06-.89,0,0-1.65,0-3.43.89-13.71,6.56-14-9.09-14-9.09,0,0-2.38-8.34-9.23-11.17-6.85-2.84-13.27,4.92-13.27,4.92,0,0,1.34-13.41,8.65-22.81-4.63.3-13.72,8.8-18.33,9.69,2.68-1.64,6.71-6.85,8.79-11.17,2.09-4.32,5.36-7.3,5.36-7.3,0,0-1.64-1.49-7.15.6,6.11-12.82,15.65-17.74,15.96-18.93.3-1.19-3.14-3.27-3.14-3.27,0,0,18.33,3.73,23.85,12.21,5.51,8.5,5.96,13.96,5.96,13.96,0,0,.44-5.46,5.96-13.96,2.41-3.71,7.27-6.51,11.98-8.5-.71-.23-1.4-.48-2.08-.76-.04-.02-.09-.03-.14-.06-10.8-4.42-18.54-15.14-29.58-18.85-3.43-20.72-24.29-38.45-26.07-37.85-1.79.6-6.71,8.19-8.94,18.63-5.82,28.62,5.06,32.64,5.06,32.64l-3.73,1.94s3.43,2.08,7.9,2.83c-8.21,1.61-16.57,15.93-16.83,16.39l7.14-2.68-15.65,32.79s9.39-1.64,16.85-3.28c-13.18,38.2,18.65,61.84,19.07,62.15-.18-.26-8.48-13.14-7.01-30.1,7.16,37.85,36.96,52.01,36.96,52.01,0,0-2.98-20.71,4.17-32.93,7.15-12.22,6.56-24.74,6.56-24.74,7.61-2.24,7.45-17.29,7.45-17.29ZM130.68,65.31s1.05.89,5.82,4.32c-1.94-1.64-5.37-10.43-3.28-21.46,1.48,6.4,9.84,14.9,12.83,19.38,2.98,4.47,1.63,7.15-1.8,10.13-3.43,2.98-5.81,9.84-5.81,9.84-1.05-3.73.75-9.69.75-9.69,0,0-1.8,1.79-4.78,9.09-1.04-7.75,2.69-10.73,2.69-10.73,0,0-1.34.14-3.13-1.34-1.79-1.49-3.28-9.54-3.28-9.54ZM182.09,167.66c-1.31,1.79-3.27,3-5.46,3.37l-3.04.5c-.59.1-1.18.1-1.77,0l-3.04-.5c-2.19-.37-4.15-1.58-5.46-3.37l-1.08-1.45.24.07c1.11.34,2.27.51,3.42.51,1.59,0,3.18-.33,4.67-.98.69-.3,1.42-.45,2.16-.45s1.46.15,2.15.45c2.55,1.12,5.42,1.28,8.08.47l.24-.07-1.08,1.45Z"/>
        <path class="cls-2" d="M183.13,153.12v1.13l-.39,1.14c-.65,1.88-4.68,3.35-5.96,3.98l-2.87,1.4c-.82.34-1.69.34-2.51,0l-2.95-1.45c-1.23-.6-5.2-1.98-5.88-3.76l-.34-.86v-1.58c0-2.28,1.51-4.29,3.69-4.93l1.91-.55c3.23-.28,6.48-.28,9.7,0l1.91.55c2.18.64,3.69,2.64,3.69,4.93Z"/>
        <path class="cls-2" d="M151.99,113c-6.16-.74-10.44-2.77-10.58-2.83,2.98,3.42,8.19,3.87,6.56,4.76,1.63,7.89,8.34,7.89,9.09,7.89s2.53.9,3.58,3.8c1,2.82-3.05,21.36-3.26,22.38.3-.84,5.23-14.62,6.1-21.41.9-7.01-5.22-13.87-11.48-14.6ZM153.48,120.01c-2.23-.83-2.91-5-2.91-5,.98-.03,1.83.07,2.57.26-.12.3-.19.63-.19.97,0,1.42,1.15,2.57,2.57,2.57.68,0,1.29-.26,1.75-.69.57.81.91,1.61,1.12,2.18-.96.52-2.67.52-4.92-.3Z"/>
        <path class="cls-5" d="M158.39,120.31c-.96.52-2.67.52-4.92-.3-2.23-.83-2.91-5-2.91-5,.98-.03,1.83.07,2.57.26-.12.3-.19.63-.19.97,0,1.42,1.15,2.57,2.57,2.57.68,0,1.29-.26,1.75-.69.57.81.91,1.61,1.12,2.18Z"/>
        <path class="cls-2" d="M204,110.18c-.13.05-4.42,2.09-10.58,2.83-6.26.74-12.37,7.6-11.47,14.6.86,6.79,5.79,20.57,6.1,21.41-.22-1.02-4.28-19.56-3.27-22.38,1.05-2.91,2.83-3.8,3.59-3.8s7.44,0,9.09-7.89c-1.64-.9,3.57-1.35,6.56-4.76ZM191.93,120.01c-2.24.82-3.96.82-4.92.3.22-.57.57-1.37,1.12-2.18.47.43,1.08.69,1.75.69,1.42,0,2.57-1.16,2.57-2.57,0-.34-.07-.67-.19-.97.74-.19,1.6-.29,2.57-.26,0,0-.67,4.17-2.91,5Z"/>
        <path class="cls-5" d="M194.84,115.01s-.67,4.17-2.91,5c-2.24.82-3.96.82-4.92.3.22-.57.57-1.37,1.12-2.18.47.43,1.08.69,1.75.69,1.42,0,2.57-1.16,2.57-2.57,0-.34-.07-.67-.19-.97.74-.19,1.6-.29,2.57-.26Z"/>
        <path class="cls-2" d="M202.26,68.25c-14.71-6.26-31.01-6.81-35.71-6.83-.2.34-.38.65-.45.83-.33.91-.6,1.85-.97,2.76-1.13,2.89-2.63,5.72-3.69,8.6-.28.74-.41,1.6-.71,2.34,11.04,3.71,18.79,14.42,29.58,18.85.05.03.09.04.14.06.68.28,1.37.54,2.07.76,3.75,1.24,7.82,1.86,11.92,2.37,7.34.92,14.84,1.5,21.06,4.68h.03s.44-.13.44-.13c.16-.75.7-1.36,1-2.02,1.23-2.69,2.12-5.65,3.27-8.39.39-.93.75-1.89,1.16-2.81.13-.29.44-1.15.74-1.86-10.62-9.75-15.13-12.92-29.89-19.2Z"/>
        <path class="cls-2" d="M246.68,116.29c0-1.7-1.11-3.12-2.64-3.61v-25.76l12.83.65-18.86-16.67-.24-.21c-7.67-6.93-15.32-13.88-23.1-20.71-.59-.51-1.17-1.02-1.75-1.54-.76-.66-1.52-1.33-2.28-1.99l-60.87-2.94c5.08,5.09,10.75,9.83,15.9,14.83,3.38-.05,21.27.03,37.81,7.07,15.69,6.68,20.36,10.15,32.07,20.97l-.09.1c2.1.07,4.22.17,6.33.28v25.91c-1.54.49-2.64,1.91-2.64,3.61,0,1.1.47,2.09,1.23,2.79-1.03,2.79-2.04,7-2.25,13.12,3.66,6.98,6.62,12.94,6.62,12.94,0,0,2.17-16.02.13-25.62,1.09-.65,1.82-1.86,1.82-3.22Z"/>
      </g>
      <g>
        <g>
          <path class="cls-3" d="M81.28,294.4c.12-1.7,1.76-9.3,2.98-15.08l3.04-13.68h12.65l3.83,16.78c.85,3.95,1.52,8.94,1.82,11.98h.3c.24-2.74,1.28-9.06,1.82-11.61l2.07-9.24h-3.34v-7.9h17.39v7.9h-3.34l-9.06,34.6h-14.41l-3.65-14.47c-.55-2.07-1.22-5.65-1.52-7.54h-.24c-.24,1.82-1.03,5.65-1.46,7.42l-3.71,14.59h-14.11l-8.03-34.6h-3.41v-7.9h20.06v7.9h-3.53l1.58,8.88c.67,2.92,1.7,10.15,1.95,11.98h.3Z"/>
          <path class="cls-3" d="M147.34,265.64v8.03h-3.77v26.39h3.77v8.09h-20.19v-8.09h3.83v-26.39h-3.83v-8.03h20.19Z"/>
          <path class="cls-3" d="M169.87,265.64v8.03h-3.22v26.39h7.84v-7.72h10.21v15.81h-34.05v-8.09h3.34v-26.39h-3.34v-8.03h19.21Z"/>
          <path class="cls-3" d="M203.89,273.48v9.91l11.31-9.91h-4.38v-7.84h20.25v7.84h-3.53l-8.82,7.6,12.28,19.15h3.53v7.9h-23.71v-7.9h4.13l-6.57-10.34-4.5,3.83v6.51h3.28v7.9h-19.15v-7.9h3.28v-26.75h-3.28v-7.84h19.15v7.84h-3.28Z"/>
          <path class="cls-3" d="M261.68,308.14v-7.97h5.78l-1.28-4.13h-12.46l-1.28,4.13h4.74v7.97h-19.34v-7.97h4.13l8.21-26.69h-2.49v-7.84h23.35l10.76,34.54h4.26v7.97h-24.38ZM263.93,288.74l-4.01-13.13-3.95,13.13h7.97Z"/>
        </g>
        <g>
          <path class="cls-3" d="M136.47,243.81c-.1-.27-.17-.59-.27-.91-.1.32-.19.63-.27.91-.08.29-.17.51-.25.72l-1.56,4.27h4.17l-1.58-4.29c-.08-.21-.15-.44-.25-.71Z"/>
          <path class="cls-3" d="M81.09,243.81c-.1-.27-.17-.59-.27-.91-.1.32-.19.63-.27.91-.08.29-.17.51-.25.72l-1.56,4.27h4.17l-1.58-4.29c-.08-.21-.15-.44-.25-.71Z"/>
          <path class="cls-3" d="M166.94,243.87c-.38-.42-.84-.72-1.37-.95-.53-.23-1.14-.34-1.81-.34h-2.48v9.7h2.48c.67,0,1.28-.11,1.81-.34.53-.23.99-.53,1.37-.95.38-.42.65-.91.86-1.52.21-.61.3-1.28.3-2.04s-.1-1.41-.3-2.02c-.21-.59-.48-1.11-.86-1.52Z"/>
          <path class="cls-3" d="M60.91,234.47v25.9h225.16v-25.9H60.91ZM88.22,254.31h-4.65v-.97c0-.23.13-.38.38-.5.04-.02.17-.06.38-.15l-.08-.21-.69-1.87h-5.49l-.71,1.96-.06.11c.21.1.34.13.38.15.25.11.38.27.38.5v.97h-4.65v-.97c0-.23.13-.38.38-.5.1-.04.46-.19,1.05-.44l4.65-11.87h2.63l4.67,11.87c.59.25.95.4,1.05.44.25.1.36.27.36.5v.97ZM115.16,254.31h-5.34v-1.12c0-.32.15-.51.48-.59.02,0,.08,0,.15-.02.08-.02.17-.04.27-.06l-2.92-3.81c-.13-.17-.29-.27-.44-.34-.15-.08-.38-.11-.67-.11h-.82v4.17c.23.04.44.08.57.1.13.02.23.06.29.06s.1.02.11.02c.32.08.48.27.48.59v1.12h-5.45v-1.12c0-.32.15-.51.48-.59.02,0,.06,0,.11-.02.06-.02.15-.04.29-.06.13-.02.34-.06.57-.1v-10c-.23-.04-.44-.1-.57-.11-.13-.02-.23-.04-.29-.04s-.1-.02-.11-.02c-.32-.08-.48-.29-.48-.61v-1.11h5.45v1.11c0,.32-.15.53-.48.61-.02,0-.06.02-.11.02-.06.02-.15.02-.29.04-.13.02-.34.08-.57.11v3.89h.61c.25,0,.44-.02.59-.1.15-.08.3-.17.42-.32l2.84-3.6s-.08-.02-.13-.02-.1-.02-.11-.02c-.32-.08-.48-.27-.48-.59v-1.12h5.07v1.12c0,.32-.15.51-.48.59-.04,0-.08.02-.15.02s-.19.04-.34.06c-.15.02-.34.06-.57.1l-3.11,3.85c-.15.17-.29.32-.42.44-.13.11-.29.23-.44.3.21.08.4.19.57.32.17.13.34.32.5.53l3.39,4.55c.23.04.4.08.55.1.15.02.27.06.34.06s.11.02.15.02c.32.08.48.27.48.59v1.12ZM143.6,254.31h-4.65v-.97c0-.23.13-.38.38-.5.04-.02.17-.06.38-.15l-.08-.21-.69-1.87h-5.49l-.71,1.96-.06.11c.21.1.34.13.38.15.25.11.38.27.38.5v.97h-4.65v-.97c0-.23.13-.38.38-.5.1-.04.46-.19,1.05-.44l4.65-11.87h2.63l4.67,11.87c.59.25.95.4,1.05.44.25.1.36.27.36.5v.97ZM170.21,250.19c-.34.84-.8,1.58-1.41,2.19-.61.61-1.35,1.07-2.21,1.41-.86.34-1.79.51-2.84.51h-6.5v-1.12c0-.32.15-.51.48-.59.02,0,.06-.02.11-.02s.15-.04.29-.06c.13-.02.34-.06.57-.1v-10c-.23-.04-.44-.08-.57-.1-.13-.02-.23-.06-.29-.06s-.1-.02-.11-.02c-.32-.08-.48-.27-.48-.59v-1.12h6.5c1.05,0,1.98.17,2.84.51.86.34,1.6.8,2.21,1.41s1.07,1.33,1.41,2.17c.34.84.51,1.77.51,2.78s-.17,1.94-.51,2.78ZM194.52,241.87v2.29h-1.11c-.25,0-.38-.13-.44-.36-.02-.15-.08-.55-.13-1.22h-4.44v3.81h4.67v1.98h-4.67v3.89h4.44c.06-.67.11-1.07.13-1.22.06-.23.19-.36.44-.36h1.11v3.64h-10.14v-1.12c0-.32.15-.51.48-.59.02,0,.06-.02.11-.02s.15-.04.29-.06c.13-.02.34-.06.57-.1v-10c-.23-.04-.44-.08-.57-.1-.13-.02-.23-.06-.29-.06s-.1-.02-.11-.02c-.32-.08-.48-.27-.48-.59v-1.12h10.14v1.33ZM225.99,241.66c0,.32-.15.51-.48.59-.02,0-.06.02-.11.02s-.15.04-.29.06c-.13.02-.32.06-.55.1v10c.23.04.42.08.55.1.13.02.23.06.29.06s.1.02.11.02c.32.08.48.27.48.59v1.12h-5.41v-1.12c0-.32.15-.51.48-.59.04,0,.46-.06,1.24-.17v-7.01c0-.17.02-.34.02-.53s.02-.4.04-.61l-4.15,7.81c-.1.17-.23.32-.38.42-.15.1-.32.15-.53.15h-.34c-.21,0-.38-.06-.53-.15-.15-.1-.29-.25-.38-.42l-4.21-7.83c.02.21.02.42.04.61.02.19.02.38.02.55v7.01c.8.11,1.2.17,1.24.17.32.08.48.27.48.59v1.12h-5.41v-1.12c0-.32.15-.51.48-.59.02,0,.06,0,.11-.02.06-.02.15-.04.29-.06.13-.02.34-.06.57-.1v-10c-.23-.04-.44-.08-.57-.1-.13-.02-.23-.06-.29-.06-.06-.02-.1-.02-.11-.02-.32-.08-.48-.27-.48-.59v-1.12h3.37c.11,0,.23.02.3.02s.17.02.23.04c.08.02.11.08.17.13.06.06.11.13.17.23l4.12,7.64c.11.21.19.42.29.63.1.21.19.44.29.67.1-.23.17-.44.27-.67.1-.23.19-.44.3-.65l4.08-7.62c.06-.1.1-.17.15-.23.06-.06.11-.11.19-.13.08-.02.15-.04.23-.04s.17-.02.29-.02h3.37v1.12ZM245.1,241.66c0,.32-.15.51-.48.59-.02,0-.06.02-.11.02s-.15.04-.29.06c-.13.02-.32.06-.55.1v10c.23.04.42.08.55.1.13.02.23.06.29.06s.1.02.11.02c.32.08.48.27.48.59v1.12h-5.45v-1.12c0-.32.15-.51.48-.59.02,0,.06-.02.11-.02.06-.02.15-.04.29-.06.13-.02.34-.06.57-.1v-10c-.23-.04-.44-.08-.57-.1-.13-.02-.23-.06-.29-.06-.06-.02-.1-.02-.11-.02-.32-.08-.48-.27-.48-.59v-1.12h5.45v1.12ZM273.54,254.31h-4.65v-.97c0-.23.13-.38.38-.5.04-.02.17-.06.38-.15l-.08-.21-.69-1.87h-5.49l-.71,1.96-.06.11c.21.1.34.13.38.15.25.11.38.27.38.5v.97h-4.65v-.97c0-.23.13-.38.38-.5.1-.04.46-.19,1.05-.44l4.65-11.87h2.63l4.67,11.87c.59.25.95.4,1.05.44.25.1.36.27.36.5v.97Z"/>
          <path class="cls-3" d="M266.42,243.81c-.1-.27-.17-.59-.27-.91-.1.32-.19.63-.27.91-.08.29-.17.51-.25.72l-1.56,4.27h4.17l-1.58-4.29c-.08-.21-.15-.44-.25-.71Z"/>
        </g>
      </g>
    </g>
  </g>
</svg>