<?xml version="1.0" encoding="UTF-8"?>
<svg id="Layer_1" xmlns="http://www.w3.org/2000/svg" viewBox="0 0 670.21 347.74">
  <defs>
    <style>
      .cls-1 {
        fill: #656c71;
      }

      .cls-2 {
        fill: #3f3e3e;
      }

      .cls-3 {
        fill: #306792;
      }

      .cls-4 {
        fill: #fff;
      }

      .cls-5 {
        fill: #e7b142;
      }
    </style>
  </defs>
  <path class="cls-4" d="M610.75,101.61h-349.44c-21.92-29.06-56.74-47.85-95.95-47.85-66.34,0-120.12,53.78-120.12,120.12s53.78,120.12,120.12,120.12c39.21,0,74.02-18.79,95.95-47.85h349.44c7.85,0,14.21-6.36,14.21-14.21v-116.12c0-7.85-6.36-14.21-14.21-14.21Z"/>
  <g>
    <g>
      <g>
        <path class="cls-3" d="M153.87,93.54c-.08.15-.15.3-.21.46l-.03.04-.02.05c-.15.44-.3.88-.45,1.31-.2.59-.39,1.14-.58,1.67-.55,1.39-1.18,2.78-1.85,4.24-.15.35-.32.7-.48,1.07-.2.03-.39.08-.58.14-3.34-8.39-8.4-15.55-12.65-20.65-.43-.51-.86-1.01-1.3-1.52.97-.32,1.95-.61,2.93-.89,2.46,2.35,4.98,4.65,7.45,6.88,2.6,2.35,5.26,4.77,7.77,7.2Z"/>
        <path class="cls-3" d="M263.28,173.67c0,52.84-42.08,96.04-94.48,97.84-.42-5.72-.66-16.49,2.29-25.2,9.97-.78,19.38-3.57,27.83-7.97-2.29,7.08-5.05,11.1-5.09,11.15l-12.94,18.55,18.23-13.39c.4-.29,9.85-7.31,17.32-19.9,2.78-4.67,5.49-10.53,7.2-17.38,6.08-8.08,10.52-17.46,12.81-27.65l5.63.99,4.8,9.67,1.64-12.11c.09-.7,2.19-16.51.47-27.72,1.1-1.38,1.73-3.12,1.73-4.93,0-2.47-1.12-4.72-2.95-6.2v-22.61l3.66.19c7.56,13.88,11.86,29.78,11.86,46.67Z"/>
        <path class="cls-3" d="M150.64,270.47c-47.02-7.12-83.18-47.82-83.18-96.8,0-31.46,14.92-59.5,38.05-77.43-2.84,17.54.13,26.72,3.39,31.43-.22.27-.44.54-.66.82-.88,1.11-1.72,2.23-2.53,3.39-5.34,7.6-9.26,16.25-11.39,25.58-.15.6-.27,1.2-.39,1.81-.95,4.65-1.44,9.46-1.44,14.39,0,.87.02,1.74.05,2.6l-3.88,8.14-3.12,6.54,7.14-1.25s.58-.09,1.54-.27c1.93,8.79,5.47,16.99,10.29,24.27,4.78,25.78,25.11,40.78,25.39,40.98l15.96,11.48c1.64,1.59,3.24,3.02,4.77,4.31Z"/>
        <path class="cls-3" d="M237.76,126.26v23.16c-1.16.94-2.03,2.18-2.52,3.59-1.53-5.2-3.63-10.16-6.24-14.8.57-1.36,1.07-2.73,1.56-4.07.52-1.4,1.01-2.73,1.54-4,.2-.46.38-.92.57-1.38.24-.59.46-1.15.7-1.68.09-.19.22-.54.39-.96,1.33.04,2.67.09,4.01.15Z"/>
      </g>
      <path class="cls-1" d="M218.16,182.35c14.69,42.59-20.81,68.95-21.26,69.28.24-.35,14.38-20.71,6.31-52.34,0,0,2.49,1.99,4.48,5.48,0,0,3.66-25.42-8.3-39.21,5.15.34,15.28,9.81,20.43,10.8-2.99-1.83-7.47-7.64-9.8-12.46-2.33-4.82-5.98-8.14-5.98-8.14,0,0,1.82-1.66,7.97.66-4.42-9.27-10.44-14.83-14.23-17.96,8.18,1.02,16.55,1.67,23.48,5.21h.03c3.57,4.31,6.01,8.49,6.16,8.75l-7.96-2.99,17.45,36.56s-10.47-1.83-18.77-3.66Z"/>
      <path class="cls-1" d="M185.76,192.49s-1.33,6.64-4.48,13.29c-3.16,6.65-11.63,3.33-13.37,2.33-1.75-.99-3.41-.99-3.41-.99,0,0-1.83,0-3.83.99-15.28,7.31-15.61-10.14-15.61-10.14,0,0-2.66-9.3-10.29-12.46-7.64-3.16-14.8,5.48-14.8,5.48,0,0,1.5-14.96,9.64-25.43-5.16.34-15.29,9.81-20.44,10.8,2.99-1.83,7.48-7.64,9.8-12.46,2.33-4.82,5.98-8.14,5.98-8.14,0,0-1.83-1.66-7.97.66,6.81-14.29,17.45-19.78,17.79-21.1.34-1.33-3.5-3.65-3.5-3.65,0,0,20.44,4.16,26.59,13.62,6.14,9.47,6.64,15.56,6.64,15.56,0,0,.5-6.09,6.64-15.56,2.69-4.14,8.1-7.26,13.36-9.47-.79-.25-1.56-.53-2.32-.85-.05-.02-.1-.04-.16-.07-12.04-4.93-20.67-16.87-32.98-21.01-3.82-23.1-27.08-42.86-29.07-42.2-1.99.66-7.48,9.13-9.97,20.77-6.49,31.91,5.64,36.39,5.64,36.39l-4.16,2.16s3.83,2.32,8.81,3.15c-9.15,1.8-18.47,17.76-18.76,18.27l7.96-2.99-17.45,36.56s10.47-1.83,18.78-3.66c-14.69,42.59,20.8,68.95,21.26,69.28-.2-.29-9.45-14.65-7.81-33.56,7.98,42.2,41.21,57.99,41.21,57.99,0,0-3.32-23.09,4.65-36.72,7.97-13.63,7.31-27.58,7.31-27.58,8.48-2.5,8.31-19.28,8.31-19.28ZM117.64,98.78s1.17.99,6.49,4.81c-2.16-1.83-5.99-11.62-3.66-23.92,1.65,7.13,10.97,16.61,14.3,21.6,3.32,4.98,1.82,7.97-2,11.3-3.82,3.32-6.48,10.97-6.48,10.97-1.17-4.16.83-10.8.83-10.8,0,0-2,1.99-5.33,10.14-1.16-8.64,2.99-11.96,2.99-11.96,0,0-1.5.16-3.49-1.5-1.99-1.67-3.66-10.63-3.66-10.63ZM174.96,212.89c-1.46,1.99-3.65,3.34-6.09,3.75l-3.39.56c-.66.11-1.32.11-1.97,0l-3.39-.56c-2.44-.41-4.62-1.76-6.09-3.75l-1.21-1.62.26.07c1.24.38,2.53.57,3.81.57,1.78,0,3.55-.37,5.2-1.1.77-.34,1.58-.51,2.41-.51s1.63.17,2.4.51c2.85,1.25,6.05,1.43,9.01.52l.26-.07-1.21,1.62Z"/>
      <path class="cls-2" d="M176.12,196.67v1.26l-.43,1.27c-.72,2.1-5.21,3.73-6.64,4.44l-3.2,1.56c-.92.37-1.88.37-2.8,0l-3.29-1.62c-1.38-.67-5.8-2.21-6.56-4.19l-.37-.96v-1.76c0-2.55,1.68-4.78,4.12-5.49l2.12-.62c3.6-.31,7.23-.31,10.82,0l2.13.62c2.43.71,4.11,2.95,4.11,5.49Z"/>
      <path class="cls-2" d="M141.4,151.95c-6.87-.82-11.64-3.09-11.79-3.15,3.32,3.81,9.13,4.31,7.31,5.31,1.82,8.8,9.3,8.8,10.13,8.8s2.82,1,3.99,4.24c1.12,3.14-3.4,23.81-3.64,24.95.34-.94,5.83-16.3,6.8-23.87,1-7.81-5.82-15.46-12.8-16.28ZM143.06,159.76c-2.49-.92-3.24-5.57-3.24-5.57,1.09-.03,2.04.08,2.87.29-.13.33-.21.7-.21,1.08,0,1.58,1.28,2.87,2.86,2.87.76,0,1.44-.29,1.95-.77.63.9,1.01,1.79,1.25,2.43-1.07.58-2.98.58-5.48-.33Z"/>
      <path class="cls-5" d="M148.54,160.09c-1.07.58-2.98.58-5.48-.33-2.49-.92-3.24-5.57-3.24-5.57,1.09-.03,2.04.08,2.87.29-.13.33-.21.7-.21,1.08,0,1.58,1.28,2.87,2.86,2.87.76,0,1.44-.29,1.95-.77.63.9,1.01,1.79,1.25,2.43Z"/>
      <path class="cls-2" d="M199.39,148.8c-.15.06-4.93,2.33-11.8,3.15-6.98.82-13.79,8.47-12.79,16.28.96,7.57,6.45,22.93,6.8,23.87-.25-1.14-4.77-21.81-3.65-24.95,1.17-3.24,3.16-4.24,4-4.24s8.3,0,10.13-8.8c-1.83-1,3.98-1.5,7.31-5.31ZM185.93,159.76c-2.5.91-4.41.91-5.48.33.25-.64.63-1.53,1.25-2.43.52.48,1.2.77,1.95.77,1.58,0,2.86-1.29,2.86-2.87,0-.38-.08-.75-.21-1.08.83-.21,1.78-.32,2.87-.29,0,0-.75,4.65-3.24,5.57Z"/>
      <path class="cls-5" d="M189.17,154.19s-.75,4.65-3.24,5.57c-2.5.91-4.41.91-5.48.33.25-.64.63-1.53,1.25-2.43.52.48,1.2.77,1.95.77,1.58,0,2.86-1.29,2.86-2.87,0-.38-.08-.75-.21-1.08.83-.21,1.78-.32,2.87-.29Z"/>
      <path class="cls-2" d="M197.45,102.06c-16.4-6.98-34.57-7.59-39.82-7.61-.22.38-.42.72-.5.93-.37,1.01-.67,2.06-1.08,3.08-1.26,3.22-2.93,6.37-4.12,9.59-.31.82-.46,1.79-.8,2.61,12.31,4.14,20.95,16.08,32.98,21.01.06.03.1.05.16.07.76.31,1.53.6,2.31.85,4.18,1.39,8.71,2.07,13.29,2.64,8.18,1.03,16.55,1.68,23.48,5.21h.04s.49-.15.49-.15c.18-.83.78-1.52,1.11-2.26,1.37-3,2.36-6.3,3.65-9.36.44-1.04.83-2.11,1.29-3.14.14-.32.49-1.28.82-2.08-11.84-10.87-16.87-14.4-33.32-21.4Z"/>
      <path class="cls-2" d="M246.97,155.61c0-1.89-1.24-3.48-2.95-4.02v-28.71l14.3.72-21.03-18.59-.26-.23c-8.55-7.73-17.08-15.48-25.76-23.09-.66-.57-1.3-1.14-1.96-1.71-.84-.74-1.69-1.48-2.55-2.22l-67.86-3.28c5.66,5.68,11.98,10.96,17.73,16.54,3.77-.06,23.72.03,42.16,7.88,17.49,7.44,22.7,11.31,35.76,23.38l-.1.11c2.35.08,4.7.19,7.05.31v28.89c-1.71.54-2.95,2.13-2.95,4.02,0,1.23.52,2.33,1.38,3.11-1.15,3.11-2.27,7.81-2.51,14.63,4.08,7.78,7.37,14.42,7.37,14.42,0,0,2.41-17.86.14-28.56,1.22-.73,2.03-2.07,2.03-3.59Z"/>
    </g>
    <g>
      <g>
        <path class="cls-3" d="M308.6,207.23c.18-2.46,2.55-13.44,4.3-21.78l4.39-19.76h18.27l5.53,24.24c1.23,5.71,2.2,12.91,2.64,17.3h.44c.35-3.95,1.84-13.09,2.64-16.78l2.99-13.35h-4.83v-11.42h25.12v11.42h-4.83l-13.09,49.98h-20.82l-5.27-20.91c-.79-2.99-1.76-8.17-2.2-10.89h-.35c-.35,2.64-1.49,8.17-2.11,10.72l-5.36,21.08h-20.38l-11.59-49.98h-4.92v-11.42h28.99v11.42h-5.09l2.28,12.82c.97,4.22,2.46,14.67,2.81,17.3h.44Z"/>
        <path class="cls-3" d="M404.04,165.68v11.59h-5.45v38.12h5.45v11.68h-29.16v-11.68h5.53v-38.12h-5.53v-11.59h29.16Z"/>
        <path class="cls-3" d="M436.58,165.68v11.59h-4.66v38.12h11.33v-11.16h14.76v22.84h-49.19v-11.68h4.83v-38.12h-4.83v-11.59h27.76Z"/>
        <path class="cls-3" d="M485.73,177.02v14.32l16.34-14.32h-6.32v-11.33h29.25v11.33h-5.09l-12.74,10.98,17.74,27.67h5.09v11.42h-34.26v-11.42h5.97l-9.49-14.93-6.5,5.53v9.4h4.74v11.42h-27.67v-11.42h4.74v-38.65h-4.74v-11.33h27.67v11.33h-4.74Z"/>
        <path class="cls-3" d="M569.22,227.08v-11.51h8.34l-1.84-5.97h-18.01l-1.84,5.97h6.85v11.51h-27.93v-11.51h5.97l11.86-38.56h-3.6v-11.33h33.73l15.55,49.89h6.15v11.51h-35.22ZM572.47,199.06l-5.8-18.97-5.71,18.97h11.51Z"/>
      </g>
      <g>
        <path class="cls-3" d="M432.34,134.24c-.55-.61-1.21-1.05-1.98-1.38-.77-.33-1.65-.5-2.61-.5h-3.58v14.01h3.58c.96,0,1.84-.17,2.61-.5.77-.33,1.43-.77,1.98-1.38.55-.61.94-1.32,1.24-2.2.3-.88.44-1.84.44-2.95s-.14-2.04-.44-2.92c-.3-.85-.69-1.6-1.24-2.2Z"/>
        <path class="cls-3" d="M388.34,134.16c-.14-.39-.25-.85-.39-1.32-.14.47-.28.91-.39,1.32-.11.41-.25.74-.36,1.05l-2.26,6.17h6.03l-2.28-6.19c-.11-.3-.22-.63-.36-1.02Z"/>
        <path class="cls-3" d="M308.33,134.16c-.14-.39-.25-.85-.39-1.32-.14.47-.28.91-.39,1.32-.11.41-.25.74-.36,1.05l-2.26,6.17h6.03l-2.28-6.19c-.11-.3-.22-.63-.36-1.02Z"/>
        <path class="cls-3" d="M279.18,120.66v37.42h325.27v-37.42h-325.27ZM318.63,149.32h-6.72v-1.4c0-.33.19-.55.55-.72.05-.03.25-.08.55-.22l-.11-.3-.99-2.7h-7.93l-1.02,2.84-.08.16c.3.14.5.19.55.22.36.17.55.39.55.72v1.4h-6.72v-1.4c0-.33.19-.55.55-.72.14-.05.66-.28,1.51-.63l6.72-17.15h3.8l6.74,17.15c.85.36,1.38.58,1.51.63.36.14.52.39.52.72v1.4ZM357.54,149.32h-7.71v-1.62c0-.47.22-.74.69-.85.03,0,.11,0,.22-.03.11-.03.25-.06.39-.08l-4.21-5.51c-.19-.25-.41-.39-.63-.5-.22-.11-.55-.17-.96-.17h-1.18v6.03c.33.06.63.11.83.14.19.03.33.08.41.08s.14.03.17.03c.47.11.69.39.69.85v1.62h-7.87v-1.62c0-.47.22-.74.69-.85.03,0,.08,0,.16-.03.08-.03.22-.06.41-.08.19-.03.5-.08.83-.14v-14.45c-.33-.05-.63-.14-.83-.17-.19-.03-.33-.06-.41-.06s-.14-.03-.16-.03c-.47-.11-.69-.41-.69-.88v-1.6h7.87v1.6c0,.47-.22.77-.69.88-.03,0-.08.03-.17.03-.08.03-.22.03-.41.06-.19.03-.5.11-.83.17v5.62h.88c.36,0,.63-.03.85-.14.22-.11.44-.25.61-.47l4.1-5.2c-.05,0-.11-.03-.19-.03s-.14-.03-.17-.03c-.47-.11-.69-.39-.69-.85v-1.62h7.32v1.62c0,.47-.22.74-.69.85-.05,0-.11.03-.22.03s-.28.06-.5.08c-.22.03-.5.08-.83.14l-4.49,5.56c-.22.25-.41.47-.61.63-.19.17-.41.33-.63.44.3.11.58.28.83.47s.5.47.72.77l4.9,6.58c.33.06.58.11.8.14.22.03.39.08.5.08s.17.03.22.03c.47.11.69.39.69.85v1.62ZM398.63,149.32h-6.72v-1.4c0-.33.19-.55.55-.72.05-.03.25-.08.55-.22l-.11-.3-.99-2.7h-7.93l-1.02,2.84-.08.16c.3.14.5.19.55.22.36.17.55.39.55.72v1.4h-6.72v-1.4c0-.33.19-.55.55-.72.14-.05.66-.28,1.51-.63l6.72-17.15h3.8l6.74,17.15c.85.36,1.38.58,1.51.63.36.14.52.39.52.72v1.4ZM437.08,143.38c-.5,1.21-1.16,2.28-2.04,3.17-.88.88-1.95,1.54-3.19,2.04-1.24.5-2.59.74-4.1.74h-9.39v-1.62c0-.47.22-.74.69-.85.03,0,.08-.03.16-.03s.22-.06.41-.08c.19-.03.5-.08.83-.14v-14.45c-.33-.05-.63-.11-.83-.14-.19-.03-.33-.08-.41-.08s-.14-.03-.16-.03c-.47-.11-.69-.39-.69-.85v-1.62h9.39c1.51,0,2.86.25,4.1.74,1.24.5,2.31,1.16,3.19,2.04.88.88,1.54,1.93,2.04,3.14.5,1.21.74,2.56.74,4.02s-.25,2.81-.74,4.02ZM472.2,131.35v3.3h-1.6c-.36,0-.55-.19-.63-.52-.03-.22-.11-.8-.19-1.76h-6.41v5.51h6.74v2.86h-6.74v5.62h6.41c.08-.96.17-1.54.19-1.76.08-.33.28-.52.63-.52h1.6v5.26h-14.64v-1.62c0-.47.22-.74.69-.85.03,0,.08-.03.16-.03s.22-.06.41-.08c.19-.03.5-.08.83-.14v-14.45c-.33-.05-.63-.11-.83-.14-.19-.03-.33-.08-.41-.08s-.14-.03-.16-.03c-.47-.11-.69-.39-.69-.85v-1.62h14.64v1.93ZM517.66,131.04c0,.47-.22.74-.69.85-.03,0-.08.03-.16.03s-.22.06-.41.08c-.19.03-.47.08-.8.14v14.45c.33.06.61.11.8.14.19.03.33.08.41.08s.14.03.16.03c.47.11.69.39.69.85v1.62h-7.82v-1.62c0-.47.22-.74.69-.85.05,0,.66-.08,1.79-.25v-10.13c0-.25.03-.5.03-.77s.03-.58.06-.88l-6,11.29c-.14.25-.33.47-.55.61-.22.14-.47.22-.77.22h-.5c-.3,0-.55-.08-.77-.22-.22-.14-.41-.36-.55-.61l-6.08-11.31c.03.3.03.61.06.88.03.28.03.55.03.8v10.13c1.16.16,1.73.25,1.79.25.47.11.69.39.69.85v1.62h-7.82v-1.62c0-.47.22-.74.69-.85.03,0,.08,0,.16-.03.08-.03.22-.06.41-.08.19-.03.5-.08.83-.14v-14.45c-.33-.05-.63-.11-.83-.14-.19-.03-.33-.08-.41-.08-.08-.03-.14-.03-.16-.03-.47-.11-.69-.39-.69-.85v-1.62h4.87c.16,0,.33.03.44.03s.25.03.33.05c.11.03.17.11.25.19.08.08.17.19.25.33l5.95,11.04c.17.3.28.61.41.91.14.3.28.63.41.96.14-.33.25-.63.39-.96.14-.33.28-.63.44-.94l5.89-11.01c.08-.14.14-.25.22-.33.08-.08.16-.17.28-.19.11-.03.22-.05.33-.05s.25-.03.41-.03h4.87v1.62ZM545.26,131.04c0,.47-.22.74-.69.85-.03,0-.08.03-.17.03s-.22.06-.41.08c-.19.03-.47.08-.8.14v14.45c.33.06.61.11.8.14.19.03.33.08.41.08s.14.03.17.03c.47.11.69.39.69.85v1.62h-7.87v-1.62c0-.47.22-.74.69-.85.03,0,.08-.03.16-.03.08-.03.22-.06.41-.08.19-.03.5-.08.83-.14v-14.45c-.33-.05-.63-.11-.83-.14-.19-.03-.33-.08-.41-.08-.08-.03-.14-.03-.16-.03-.47-.11-.69-.39-.69-.85v-1.62h7.87v1.62ZM586.35,149.32h-6.72v-1.4c0-.33.19-.55.55-.72.05-.03.25-.08.55-.22l-.11-.3-.99-2.7h-7.93l-1.02,2.84-.08.16c.3.14.5.19.55.22.36.17.55.39.55.72v1.4h-6.72v-1.4c0-.33.19-.55.55-.72.14-.05.66-.28,1.51-.63l6.72-17.15h3.8l6.74,17.15c.85.36,1.38.58,1.51.63.36.14.52.39.52.72v1.4Z"/>
        <path class="cls-3" d="M576.06,134.16c-.14-.39-.25-.85-.39-1.32-.14.47-.28.91-.39,1.32-.11.41-.25.74-.36,1.05l-2.26,6.17h6.03l-2.28-6.19c-.11-.3-.22-.63-.36-1.02Z"/>
      </g>
    </g>
  </g>
</svg>