<?xml version="1.0" encoding="UTF-8"?>
<svg id="Layer_1" xmlns="http://www.w3.org/2000/svg" viewBox="0 0 346.98 346.98">
  <defs>
    <style>
      .cls-1 {
        fill: #656c71;
      }

      .cls-2 {
        fill: #3f3e3e;
      }

      .cls-3 {
        fill: #306792;
      }

      .cls-4 {
        fill: #fff;
      }

      .cls-5 {
        fill: #e7b142;
      }
    </style>
  </defs>
  <circle class="cls-4" cx="173.49" cy="173.49" r="173.49"/>
  <g>
    <g>
      <path class="cls-3" d="M156.91,57.45c-.11.22-.22.43-.31.67l-.04.06-.02.07c-.22.63-.43,1.27-.65,1.9-.29.86-.56,1.65-.84,2.41-.79,2.01-1.7,4.01-2.67,6.12-.22.51-.46,1.02-.7,1.54-.29.05-.56.11-.84.2-4.83-12.12-12.13-22.47-18.28-29.84-.62-.73-1.24-1.47-1.87-2.2,1.4-.46,2.82-.88,4.23-1.29,3.55,3.4,7.2,6.72,10.77,9.95,3.75,3.39,7.6,6.89,11.22,10.41Z"/>
      <path class="cls-3" d="M315.01,173.23c0,76.35-60.8,138.77-136.52,141.38-.61-8.27-.96-23.83,3.32-36.41,14.4-1.13,28-5.17,40.2-11.52-3.3,10.23-7.3,16.04-7.35,16.1l-18.7,26.81,26.34-19.34c.57-.42,14.23-10.57,25.02-28.76,4.01-6.75,7.93-15.21,10.41-25.11,8.79-11.67,15.2-25.23,18.51-39.96l8.13,1.43,6.93,13.97,2.37-17.49c.14-1.02,3.17-23.85.68-40.06,1.59-2,2.5-4.51,2.5-7.13,0-3.56-1.61-6.82-4.26-8.95v-32.67l5.29.27c10.93,20.05,17.13,43.04,17.13,67.43Z"/>
      <path class="cls-3" d="M152.24,313.1c-67.94-10.29-120.19-69.1-120.19-139.87,0-45.46,21.56-85.97,54.98-111.87-4.11,25.34.19,38.6,4.9,45.42-.32.38-.63.78-.96,1.18-1.27,1.6-2.48,3.23-3.65,4.9-7.71,10.98-13.39,23.48-16.45,36.96-.21.87-.4,1.74-.56,2.62-1.37,6.72-2.07,13.67-2.07,20.79,0,1.25.02,2.51.07,3.75l-5.61,11.76-4.51,9.45,10.32-1.8s.84-.14,2.22-.38c2.79,12.7,7.91,24.55,14.86,35.06,6.9,37.25,36.28,58.92,36.69,59.21l23.06,16.59c2.37,2.3,4.68,4.37,6.89,6.23Z"/>
      <path class="cls-3" d="M278.13,104.72v33.46c-1.68,1.35-2.93,3.15-3.64,5.19-2.21-7.51-5.25-14.68-9.01-21.38.82-1.96,1.54-3.95,2.25-5.89.74-2.02,1.45-3.95,2.22-5.79.29-.66.55-1.33.82-2,.35-.86.67-1.66,1.01-2.43.12-.27.32-.78.56-1.39,1.92.06,3.86.14,5.8.22Z"/>
    </g>
    <path class="cls-1" d="M249.81,185.77c21.23,61.54-30.06,99.62-30.72,100.11.35-.5,20.78-29.93,9.11-75.62,0,0,3.6,2.88,6.48,7.92,0,0,5.29-36.73-11.99-56.66,7.44.49,22.08,14.17,29.52,15.61-4.31-2.64-10.79-11.04-14.16-18-3.37-6.96-8.64-11.76-8.64-11.76,0,0,2.64-2.39,11.52.96-6.38-13.39-15.09-21.43-20.56-25.95,11.82,1.47,23.91,2.41,33.93,7.53h.04c5.15,6.22,8.68,12.27,8.9,12.64l-11.51-4.31,25.21,52.82s-15.13-2.64-27.13-5.29Z"/>
    <path class="cls-1" d="M202.99,200.42s-1.92,9.6-6.48,19.2c-4.57,9.61-16.81,4.81-19.32,3.37-2.53-1.43-4.92-1.43-4.92-1.43,0,0-2.65,0-5.53,1.43-22.08,10.56-22.56-14.65-22.56-14.65,0,0-3.84-13.44-14.88-18-11.03-4.57-21.38,7.92-21.38,7.92,0,0,2.16-21.61,13.93-36.74-7.45.49-22.1,14.17-29.53,15.61,4.31-2.64,10.8-11.04,14.16-18,3.37-6.96,8.64-11.76,8.64-11.76,0,0-2.64-2.39-11.52.96,9.84-20.65,25.21-28.57,25.71-30.49.49-1.92-5.06-5.27-5.06-5.27,0,0,29.53,6,38.42,19.68,8.87,13.69,9.6,22.49,9.6,22.49,0,0,.72-8.8,9.6-22.49,3.88-5.98,11.71-10.49,19.3-13.69-1.14-.37-2.26-.77-3.35-1.23-.07-.03-.15-.05-.23-.09-17.39-7.13-29.87-24.38-47.66-30.36-5.52-33.38-39.12-61.94-42-60.98-2.88.96-10.8,13.2-14.4,30.01-9.37,46.1,8.15,52.58,8.15,52.58l-6,3.12s5.53,3.35,12.73,4.56c-13.23,2.6-26.69,25.67-27.11,26.4l11.51-4.31-25.21,52.82s15.13-2.64,27.14-5.29c-21.23,61.54,30.05,99.62,30.72,100.11-.28-.42-13.66-21.16-11.29-48.49,11.54,60.98,59.54,83.79,59.54,83.79,0,0-4.8-33.36,6.72-53.05,11.52-19.69,10.56-39.85,10.56-39.85,12.25-3.61,12.01-27.86,12.01-27.86ZM104.56,65.02s1.69,1.43,9.37,6.95c-3.12-2.64-8.65-16.8-5.29-34.56,2.38,10.3,15.85,24,20.66,31.21,4.8,7.19,2.62,11.52-2.89,16.32-5.52,4.8-9.36,15.85-9.36,15.85-1.69-6,1.2-15.61,1.2-15.61,0,0-2.89,2.88-7.69,14.65-1.68-12.48,4.33-17.28,4.33-17.28,0,0-2.16.23-5.04-2.16-2.88-2.41-5.29-15.36-5.29-15.36ZM187.39,229.9c-2.11,2.88-5.27,4.83-8.8,5.42l-4.9.81c-.95.16-1.91.16-2.85,0l-4.9-.81c-3.53-.6-6.68-2.54-8.8-5.42l-1.74-2.34.38.11c1.79.55,3.65.83,5.5.83,2.57,0,5.13-.53,7.52-1.58,1.11-.49,2.29-.73,3.48-.73s2.35.24,3.46.73c4.11,1.81,8.74,2.07,13.02.76l.38-.11-1.74,2.34Z"/>
    <path class="cls-2" d="M189.06,206.46v1.83l-.62,1.84c-1.04,3.03-7.53,5.4-9.6,6.41l-4.62,2.26c-1.33.54-2.72.54-4.04,0l-4.76-2.34c-1.99-.97-8.38-3.19-9.48-6.06l-.54-1.39v-2.54c0-3.68,2.43-6.91,5.95-7.94l3.07-.89c5.21-.45,10.44-.45,15.63,0l3.08.89c3.52,1.03,5.94,4.26,5.94,7.94Z"/>
    <path class="cls-2" d="M138.89,141.85c-9.93-1.18-16.82-4.46-17.04-4.55,4.8,5.51,13.19,6.23,10.56,7.67,2.63,12.72,13.44,12.72,14.64,12.72s4.07,1.44,5.77,6.13c1.62,4.54-4.91,34.4-5.26,36.05.49-1.36,8.42-23.55,9.83-34.49,1.44-11.28-8.41-22.34-18.5-23.52ZM141.29,153.13c-3.6-1.33-4.68-8.05-4.68-8.05,1.57-.04,2.95.12,4.15.42-.19.48-.3,1.01-.3,1.56,0,2.28,1.85,4.15,4.13,4.15,1.1,0,2.08-.42,2.82-1.11.91,1.3,1.46,2.59,1.81,3.51-1.55.84-4.31.84-7.92-.48Z"/>
    <path class="cls-5" d="M149.21,153.61c-1.55.84-4.31.84-7.92-.48-3.6-1.33-4.68-8.05-4.68-8.05,1.57-.04,2.95.12,4.15.42-.19.48-.3,1.01-.3,1.56,0,2.28,1.85,4.15,4.13,4.15,1.1,0,2.08-.42,2.82-1.11.91,1.3,1.46,2.59,1.81,3.51Z"/>
    <path class="cls-2" d="M222.68,137.3c-.22.09-7.12,3.37-17.05,4.55-10.09,1.18-19.93,12.24-18.48,23.52,1.39,10.94,9.32,33.13,9.83,34.49-.36-1.65-6.89-31.51-5.27-36.05,1.69-4.68,4.57-6.13,5.78-6.13s11.99,0,14.64-12.72c-2.64-1.44,5.75-2.17,10.56-7.67ZM203.23,153.13c-3.61,1.32-6.37,1.32-7.92.48.36-.92.91-2.21,1.81-3.51.75.69,1.73,1.11,2.82,1.11,2.28,0,4.13-1.86,4.13-4.15,0-.55-.12-1.08-.3-1.56,1.2-.3,2.57-.46,4.15-.42,0,0-1.08,6.72-4.68,8.05Z"/>
    <path class="cls-5" d="M207.91,145.09s-1.08,6.72-4.68,8.05c-3.61,1.32-6.37,1.32-7.92.48.36-.92.91-2.21,1.81-3.51.75.69,1.73,1.11,2.82,1.11,2.28,0,4.13-1.86,4.13-4.15,0-.55-.12-1.08-.3-1.56,1.2-.3,2.57-.46,4.15-.42Z"/>
    <path class="cls-2" d="M219.88,69.76c-23.69-10.08-49.95-10.97-57.53-11-.31.55-.61,1.05-.72,1.34-.53,1.46-.97,2.98-1.56,4.45-1.83,4.65-4.23,9.21-5.95,13.86-.45,1.19-.66,2.58-1.15,3.77,17.78,5.98,30.26,23.23,47.66,30.36.08.04.15.07.23.09,1.1.45,2.2.87,3.34,1.23,6.04,2,12.59,2.99,19.2,3.81,11.82,1.49,23.91,2.42,33.93,7.53h.05s.7-.22.7-.22c.26-1.2,1.12-2.19,1.61-3.26,1.97-4.34,3.41-9.1,5.27-13.52.64-1.5,1.2-3.04,1.87-4.53.21-.46.71-1.86,1.19-3-17.11-15.7-24.38-20.81-48.14-30.93Z"/>
    <path class="cls-2" d="M291.43,147.14c0-2.73-1.79-5.03-4.26-5.81v-41.49l20.66,1.04-30.39-26.86-.38-.34c-12.36-11.17-24.68-22.37-37.22-33.36-.95-.82-1.88-1.65-2.83-2.47-1.22-1.07-2.45-2.14-3.68-3.21l-98.06-4.73c8.18,8.21,17.31,15.83,25.61,23.89,5.45-.08,34.27.05,60.91,11.39,25.27,10.75,32.81,16.35,51.67,33.78l-.15.16c3.39.11,6.8.28,10.19.45v41.75c-2.47.78-4.26,3.08-4.26,5.81,0,1.77.76,3.37,1.99,4.49-1.66,4.49-3.29,11.28-3.62,21.14,5.9,11.24,10.66,20.84,10.66,20.84,0,0,3.49-25.8.2-41.27,1.76-1.05,2.93-2.99,2.93-5.19Z"/>
  </g>
</svg>